<svg width="32" height="32" viewBox="0 0 32 32" fill="none" xmlns="http://www.w3.org/2000/svg">
  <!-- Background circle with gradient -->
  <circle cx="16" cy="16" r="16" fill="url(#gradient)"/>
  
  <!-- Market basket -->
  <path d="M8 20C8 18.8954 8.89543 18 10 18H22C23.1046 18 24 18.8954 24 20V24C24 25.1046 23.1046 26 22 26H10C8.89543 26 8 25.1046 8 24V20Z" fill="white" opacity="0.9"/>
  
  <!-- Basket handle -->
  <path d="M12 18C12 16.8954 12.8954 16 14 16H18C19.1046 16 20 16.8954 20 18V20H12V18Z" fill="white" opacity="0.7"/>
  
  <!-- Fresh vegetables -->
  <circle cx="12" cy="22" r="2" fill="#4ade80"/>
  <circle cx="16" cy="22" r="2" fill="#f59e0b"/>
  <circle cx="20" cy="22" r="2" fill="#ef4444"/>
  
  <!-- Leaf decoration -->
  <path d="M16 8C16 6.89543 16.8954 6 18 6C19.1046 6 20 6.89543 20 8C20 9.10457 19.1046 10 18 10C16.8954 10 16 9.10457 16 8Z" fill="#22c55e"/>
  <path d="M16 8C16 6.89543 15.1046 6 14 6C12.8954 6 12 6.89543 12 8C12 9.10457 12.8954 10 14 10C15.1046 10 16 9.10457 16 8Z" fill="#16a34a"/>
  
  <!-- Gradient definition -->
  <defs>
    <linearGradient id="gradient" x1="0%" y1="0%" x2="100%" y2="100%">
      <stop offset="0%" style="stop-color:#22c55e;stop-opacity:1" />
      <stop offset="100%" style="stop-color:#16a34a;stop-opacity:1" />
    </linearGradient>
  </defs>
</svg>