<svg width="32" height="32" viewBox="0 0 32 32" fill="none" xmlns="http://www.w3.org/2000/svg">
  <rect width="32" height="32" rx="6" fill="#22c55e"/>
  <path d="M8 12C8 10.8954 8.89543 10 10 10H22C23.1046 10 24 10.8954 24 12V20C24 21.1046 23.1046 22 22 22H10C8.89543 22 8 21.1046 8 20V12Z" fill="white"/>
  <circle cx="12" cy="16" r="2" fill="#22c55e"/>
  <circle cx="20" cy="16" r="2" fill="#22c55e"/>
  <path d="M16 8L18 10L16 12L14 10L16 8Z" fill="white"/>
  <path d="M16 20L18 22L16 24L14 22L16 20Z" fill="white"/>
</svg>
